<?xml version="1.0" standalone="no"?>
<!DOCTYPE svg PUBLIC "-//W3C//DTD SVG 20010904//EN"
 "http://www.w3.org/TR/2001/REC-SVG-20010904/DTD/svg10.dtd">
<svg version="1.0" xmlns="http://www.w3.org/2000/svg"
 width="963.000000pt" height="580.000000pt" viewBox="0 0 963.000000 580.000000"
 preserveAspectRatio="xMidYMid meet">

<g transform="translate(0.000000,580.000000) scale(0.100000,-0.100000)"
fill="#000000" stroke="none">
<path d="M6903 5225 c-19 -13 -285 -15 -2195 -15 -1195 -1 -2189 -5 -2209 -9
-37 -9 -61 -26 -693 -516 -177 -137 -488 -378 -690 -535 -203 -157 -427 -331
-500 -388 -72 -56 -168 -130 -213 -165 l-83 -62 3 -1570 2 -1570 4465 -2
c2803 -2 4471 1 4480 7 13 8 15 188 17 1507 2 824 0 1532 -4 1575 l-6 76 -296
228 c-331 255 -960 734 -1093 834 -48 36 -86 70 -85 75 4 11 105 102 357 318
96 83 178 156 182 161 12 17 9 33 -8 50 -14 14 -92 16 -712 16 -602 0 -700 -2
-719 -15z m1242 -108 c-22 -17 -114 -97 -205 -177 -91 -80 -188 -164 -216
-188 l-52 -42 -643 2 -644 3 160 121 c88 67 217 166 286 220 l126 99 613 -3
614 -2 -39 -33z m-2843 -5 l287 -2 178 -141 c98 -77 198 -158 223 -179 l45
-39 -566 0 c-311 -1 -626 -4 -700 -7 l-134 -7 -195 163 c-107 90 -208 172
-223 184 l-29 21 204 5 c195 5 279 5 910 2z m-1065 -160 c103 -86 201 -167
217 -180 l29 -22 -139 -2 c-442 -6 -1262 -3 -1277 5 -20 9 -437 347 -437 353
0 2 319 4 709 4 l709 0 189 -158z m2503 145 c-9 -7 -92 -70 -185 -142 -94 -71
-194 -149 -223 -172 -44 -36 -60 -43 -97 -43 -40 0 -52 7 -132 73 -48 40 -144
117 -213 171 -69 55 -132 105 -140 113 -12 11 72 13 495 13 403 -1 507 -3 495
-13z m-4195 -40 c97 -84 504 -413 646 -523 519 -398 1024 -785 1142 -875 l139
-104 -996 -3 c-548 -1 -1444 -1 -1991 0 l-995 3 82 64 c46 36 128 99 183 141
112 85 499 383 578 445 29 23 93 72 143 110 174 134 600 464 804 623 113 89
207 161 210 161 3 1 28 -18 55 -42z m2126 -462 c46 -36 209 -160 362 -277 152
-116 277 -214 277 -218 0 -4 -313 -7 -696 -7 l-696 0 -146 111 c-81 61 -217
165 -302 231 -85 66 -183 140 -217 165 -34 25 -63 48 -63 53 0 4 314 7 698 7
l698 0 85 -65z m1680 -88 c108 -84 271 -208 362 -277 l164 -125 -76 -7 c-42
-4 -112 -5 -156 -3 -44 2 -326 4 -627 5 l-547 0 -173 131 c-95 72 -258 194
-361 272 -147 111 -184 143 -170 149 10 3 326 7 703 7 l685 0 196 -152z m1734
-151 l331 -251 -691 -3 -690 -2 -52 37 c-28 21 -145 110 -259 197 -114 88
-241 185 -282 215 l-74 56 93 5 c52 3 364 4 694 2 l599 -5 331 -251z m-2355
-573 c159 -120 290 -221 290 -225 0 -5 -315 -8 -701 -8 l-701 0 -71 58 c-40
32 -164 127 -277 212 -113 84 -212 159 -220 166 -12 12 93 14 688 14 l703 0
289 -217z m1361 146 c52 -39 180 -136 286 -215 105 -79 194 -148 198 -154 4
-7 -216 -10 -697 -10 l-703 0 -80 63 c-44 35 -165 127 -270 206 -104 79 -199
152 -210 162 -19 19 -3 19 681 19 l701 0 94 -71z m1587 -26 c155 -118 260
-197 376 -283 l87 -65 -701 -3 -701 -2 -102 78 c-56 44 -171 131 -255 195 -84
64 -170 129 -190 146 l-37 30 698 1 698 0 127 -97z m-4130 -1650 l-3 -1218
-2072 -3 -2073 -2 0 1220 0 1220 2075 0 2075 0 -2 -1217z m1547 -3 l0 -1215
-729 0 -729 0 1 1215 c1 668 1 1216 2 1218 0 1 327 1 728 0 l727 -3 0 -1215z
m1551 25 c1 -655 0 -1202 -3 -1218 l-5 -27 -729 0 -729 0 0 1220 0 1220 733
-2 732 -3 1 -1190z m1554 -25 l0 -1220 -732 2 -733 3 -3 1205 c-1 663 0 1211
3 1218 3 9 160 12 735 12 l730 0 0 -1220z m-4655 -1540 l0 -235 -2072 -3
-2073 -2 0 240 0 240 2073 -2 2072 -3 0 -235z m1550 0 l0 -235 -724 -3 c-573
-2 -726 0 -733 10 -8 14 -10 447 -1 461 2 4 331 6 731 5 l727 -3 0 -235z
m1548 0 l0 -235 -732 -3 -731 -2 0 240 0 240 732 -2 732 -3 -1 -235z m1557 0
l0 -240 -732 2 -733 3 -3 238 -2 237 735 0 735 0 0 -240z"/>
<path d="M5525 3136 c-19 -29 -15 -40 55 -146 31 -47 82 -126 113 -176 55 -89
80 -110 113 -97 8 3 17 16 20 29 5 18 -19 63 -106 201 -140 221 -161 242 -195
189z"/>
<path d="M4922 3138 c-17 -17 -15 -46 7 -76 36 -51 364 -577 674 -1081 124
-202 146 -228 181 -215 34 13 29 49 -18 126 -93 154 -335 545 -554 896 -202
323 -230 362 -252 362 -14 0 -31 -5 -38 -12z"/>
<path d="M4862 2198 c-22 -22 -13 -46 66 -170 43 -68 109 -172 148 -232 38
-60 103 -164 144 -229 81 -130 99 -149 128 -131 31 20 25 56 -21 129 -24 39
-120 192 -212 340 -93 149 -175 278 -183 288 -17 20 -53 22 -70 5z"/>
<path d="M6496 3134 c-11 -30 -6 -45 42 -117 47 -69 297 -468 550 -877 228
-368 229 -370 255 -370 47 0 61 42 28 88 -10 15 -102 162 -203 327 -102 165
-214 345 -248 400 -35 55 -84 134 -110 175 -101 164 -224 356 -238 373 -19 21
-68 23 -76 1z"/>
<path d="M7100 3131 c-5 -11 -10 -25 -10 -31 0 -13 204 -334 233 -367 11 -13
31 -23 43 -23 25 0 49 33 40 56 -7 19 -215 345 -234 367 -20 23 -59 22 -72 -2z"/>
<path d="M6456 2194 c-9 -8 -16 -22 -16 -31 0 -8 84 -149 187 -312 102 -163
204 -324 226 -358 40 -64 67 -79 95 -51 21 21 13 51 -27 113 -21 33 -96 152
-167 265 -70 113 -152 243 -182 290 -61 98 -85 115 -116 84z"/>
<path d="M8056 3144 c-9 -8 -16 -22 -16 -31 0 -8 74 -133 163 -277 90 -143
275 -440 411 -659 261 -419 276 -438 317 -401 11 10 19 22 19 27 0 5 -93 159
-207 341 -245 393 -384 617 -509 821 -123 200 -140 217 -178 179z"/>
<path d="M8650 3141 c-8 -16 -8 -27 1 -43 27 -51 231 -367 244 -378 8 -7 26
-9 39 -6 52 13 44 37 -86 244 -115 183 -126 197 -155 200 -24 2 -34 -2 -43
-17z"/>
<path d="M8000 2191 c-13 -26 -9 -35 120 -241 53 -85 136 -220 185 -300 48
-80 101 -162 117 -182 42 -54 88 -50 88 9 0 15 -75 142 -308 518 -119 193
-132 210 -160 213 -23 2 -34 -2 -42 -17z"/>
</g>
</svg>
