<svg xmlns="http://www.w3.org/2000/svg" viewBox="0 0 309 320" aria-hidden="true">
  <g transform="translate(0,320) scale(0.1,-0.1)" fill="currentColor" stroke="none">
    <path d="M1663 2265 l-643 -645 0 -305 0 -305 303 0 302 0 650 650 650 650 -300 300 c-165 165 -304 300 -310 300 -5 0 -299 -290 -652 -645z m827 210 l165 -165 -555 -555 -555 -555 -170 2 -170 3 -2 165 -2 165 552 553 c303 303 556 552 562 552 6 0 84 -74 175 -165z"></path>
    <path d="M432 2840 c-108 -39 -199 -127 -238 -233 -18 -50 -19 -87 -19 -1097 l0 -1045 24 -60 c33 -83 133 -183 216 -216 l60 -24 1000 -3 c1036 -3 1083 -2 1173 38 65 29 148 114 185 189 l32 66 3 563 3 562 -96 0 -95 0 0 -533 0 -533 -26 -52 c-19 -39 -38 -59 -72 -80 l-47 -27 -1015 0 -1015 0 -47 27 c-34 21 -53 41 -72 80 l-26 52 0 990 c0 651 4 1004 10 1028 14 50 55 97 105 119 37 17 78 19 578 19 l537 0 0 95 0 95 -552 0 c-518 -1 -556 -2 -606 -20z"></path>
  </g>
</svg>
